<svg 
          width="407" 
          height="398" fill="none" 
          xmlns="http://www.w3.org/2000/svg">
          <defs>
            <linearGradient id="e993050">
        <stop offset="25%" style="stop-color:rgb(171.00000500679016,131.00000739097595,254.00000005960464);stop-opacity:1" />
        <stop offset="77.62483954429626%" style="stop-color:rgb(68.00000354647636,68.00000354647636,255);stop-opacity:1" />
        </linearGradient>
          </defs>
          <path d="M 202.23840142808817 19.181989652704594 C 235.79755388709586 22.562456083655213 273.17750084876434 6.45740519997727 301.54696494516355 24.71371986959421 C 329.8958876102755 42.95681604913794 333.6977518506687 82.12178336359935 347.71188823380857 112.79707863499499 C 360.4089062771459 140.58935547976745 372.59858589149707 167.2478070489282 380.187363996099 196.84828862512546 C 389.84835862501035 234.53157675614716 422.3807699326419 279.58642728819143 398.3027512419112 310.12975593154334 C 372.6651936440869 342.65138609424866 315.60131563964984 311.15430584401486 277.4357751275596 327.1902195032471 C 246.3019941994636 340.2716174379665 234.51051156784695 382.5677831235464 202.23840142808817 392.50958958257945 C 167.21047561274867 403.3003579190261 128.5998941251929 397.0639401740624 94.53424777019441 383.53521445148004 C 57.71839951466806 368.9142820784595 11.991236431253554 351.03985756440477 1.5424223459704463 312.80579987982725 C -9.48227755546979 272.4644752973188 42.16100590854108 238.64911432683638 43.51541360956675 196.84828862512546 C 44.79962226420542 157.21400384868184 -0.47644708680129 123.67704449534978 8.918716338428437 85.15265555180422 C 18.207145333814488 47.06592673496232 53.596003519182275 16.125585731351393 90.67513834399996 3.472268610645502 C 126.8355614844302 -8.867536171881985 164.2254870481006 15.352888721055232 202.23840142808817 19.181989652704594 Z" fill="url(#e993050)"/>
        </svg>